<svg version="1.2" xmlns="http://www.w3.org/2000/svg" viewBox="0 0 732 547" width="732" height="547">
	<title>MAS Logo</title>
	<style>
		.s0 { fill: #214185 } 
		.s1 { fill: #4a4a4a } 
		.s2 { fill: #01a239 } 
		.s3 { fill: #008cc7 } 
		.s4 { fill: #dd3d27 } 
		.s5 { fill: #e68823 } 
	</style>
	<g id="Background">
		<path id="Path 0" class="s0" d="m583.8 57c-5.1 5.3-18 18.8-28.6 30-10.6 11.3-19.3 20.8-19.2 21.3 0 0.4 1.7 0.5 3.8 0.2 2-0.3 7.3-0.8 11.6-1.3 7.6-0.7 7.9-0.6 7.3 1.3-0.3 1.1-2.6 8.8-5.1 17-2.5 8.3-7 22.2-10 31-3 8.8-8.5 23.2-12.1 32-3.7 8.8-10.2 23-14.5 31.5-4.3 8.5-10.5 19.8-13.6 25-3.2 5.2-9.4 14.7-13.9 21-4.5 6.3-12.5 16.2-17.7 22-5.2 5.8-12.8 13.6-16.9 17.4-4.1 3.7-10.5 9.2-14.4 12.1-3.8 2.9-10.1 7.3-14 9.9-3.8 2.6-12.8 7.6-20 11.2-7.1 3.5-18.4 8.1-25 10.3-6.6 2.1-15.8 4.8-20.5 5.9-4.7 1.1-15 2.8-23 3.7-10.2 1.2-18.2 1.6-27 1.1-6.9-0.3-15.9-1.2-20-2-4.1-0.8-10-2.3-13-3.3l-5.5-1.8c-1.1-158-1.6-188.8-2.3-190.5-0.6-1.4-1.7-3.2-2.4-4-0.7-0.9-2.8-2.6-4.5-3.8-2.1-1.4-5.5-2.4-9.5-2.8-3.5-0.3-11.2-0.1-17.3 0.5-9.6 0.9-11.8 1.5-17 4.5-3.3 1.9-7.9 5.4-10.2 7.8-3.1 3.2-6.2 8.5-11.6 20.3-4.1 8.8-10.8 23.9-15 33.5-4.1 9.6-9.4 21.4-11.6 26.3-2.3 4.8-4.3 8.7-4.6 8.7-0.3 0-2.3-3.9-4.6-8.8-2.2-4.8-10.3-22.6-17.8-39.7-7.5-17.1-15.1-33-16.7-35.5-1.7-2.5-5.1-6.2-7.5-8.2-2.4-2-7.1-4.9-10.4-6.4-5.6-2.6-6.9-2.7-20.5-2.8-14.1-0.1-14.6 0-19.2 2.7-2.7 1.5-5.6 4.2-6.5 6-1.6 2.9-1.8 7.9-2.1 52.7-0.2 27.2 0 66.7 0.5 87.7l0.8 38.2c3.9 0.7 8.4 0.5 12.5 0 5.1-0.7 9.3-1.9 13-3.9 3-1.6 7.4-4.8 9.8-7 2.3-2.2 5.8-7.1 7.7-11l3.5-7c0.9-57 1.4-74.2 1.7-75 0.3-1 1-0.4 2.3 2 1 1.9 7.4 17 14.3 33.5 6.8 16.5 13.6 32.2 14.9 35 1.4 2.7 4.7 6.9 7.4 9.3 2.7 2.4 5.8 4.6 6.9 4.8 1.1 0.3 6.1 0.4 11.2 0.2 8.3-0.3 9.5-0.6 13.5-3.3 2.3-1.7 5.7-5.1 7.3-7.5 1.7-2.5 5.7-11 8.9-19 3.3-8 9.1-22.1 12.9-31.5 3.8-9.4 8-19 9.2-21.5 2.2-4.2 2.3-4.4 2.9-2 0.3 1.4 0.7 18.9 0.8 39l0.3 36.5c4.9 9.3 8.5 14.7 11.1 18 2.7 3.2 7.7 8.2 11 11 3.4 2.7 9.7 7.1 14 9.7 4.4 2.5 12.4 6.2 17.9 8.1 5.5 1.9 15.2 4.5 21.5 5.7 9.4 1.9 14.6 2.3 28 2.3 9.3-0.1 22-0.8 29-1.8 6.9-0.9 17.7-2.9 24-4.5 6.3-1.6 15.6-4.3 20.5-6 5-1.8 14.9-6 22-9.5 7.2-3.4 18.4-9.8 25-14.2 6.6-4.4 16.3-11.9 21.5-16.5 5.2-4.7 15.4-14.5 22.5-21.9 7.2-7.4 17.2-18.9 22.3-25.7 5.1-6.8 9.8-12 10.5-11.8 0.6 0.3 3.9 1.6 7.2 2.9 3.3 1.4 14.7 5 25.3 8.1 10.5 3.1 21.6 6.5 24.5 7.6 2.8 1.1 6.7 3.2 8.5 4.5 1.8 1.5 3.7 4.1 4.3 6.2 0.9 3 0.9 4.4-0.2 6.8-0.8 1.6-3 4-4.9 5.2-2 1.3-5.9 2.6-9 2.9-3 0.4-8.2 0.3-11.5 0-3.3-0.4-9.1-1.6-13-2.7-3.8-1.2-10.8-3.5-15.5-5.2-6.9-2.5-10.1-3-17-3.1-6.4 0-10 0.5-14.5 2.2-3.3 1.2-8.2 3.9-10.9 6-2.7 2-6.5 5.9-8.3 8.7-1.9 2.7-3.4 6-3.3 7.2 0 1.4 1.4 3.4 3.3 4.9 1.7 1.5 6.1 4.2 9.7 6.2 3.6 2 11.7 5.7 18 8.3 6.3 2.6 16.5 6 22.5 7.5 10.6 2.8 11.8 2.9 34.5 2.9 22.8-0.1 23.8-0.2 32.5-2.9 5-1.5 11.9-4.3 15.5-6.1 3.6-1.9 9.4-6 12.9-9.2 3.5-3.2 7.8-7.8 9.4-10.3 1.7-2.5 4.1-7.4 5.3-11 1.2-3.6 2.5-9.6 2.9-13.5 0.5-4.9 0.2-9.3-0.9-14.5-0.9-4.1-3-10.4-4.7-14-2-4.2-5.3-8.7-9.2-12.6-4.2-4.1-8.8-7.4-14.2-10.1-4.4-2.2-10.7-4.9-14-6.1-3.3-1.1-13.4-4.4-22.5-7.3-9.1-2.8-18.7-6.2-21.5-7.4-2.7-1.2-6-3.3-7.2-4.6-1.2-1.3-2.6-3.6-3.2-5.2-0.8-1.8-0.8-3.7-0.1-5.7 0.6-1.8 2.4-3.7 4.3-4.7 2.3-1.3 5.3-1.8 11.2-1.7 5.2 0.1 11.6 1.1 18.5 2.9 5.8 1.5 12.8 3.2 15.5 3.7 2.8 0.6 8.2 0.8 12 0.6 4.8-0.3 8.9-1.3 13-3.2 3.3-1.5 8-4.6 10.4-6.9 2.4-2.3 5.6-6.2 7.2-8.7 1.7-2.6 2.9-5.9 2.9-7.8 0-1.9-0.8-4-2-5.2-1.1-1.1-5-3.5-8.7-5.3-3.8-1.9-9.5-4.3-12.8-5.5-3.3-1.2-11.2-3.3-17.5-4.6-6.3-1.3-15.8-3-21-3.6-5.2-0.7-9.8-1.5-10.2-1.9-0.3-0.3 1.7-6.9 4.6-14.6 2.8-7.7 5.5-14.8 5.9-15.8 0.5-1.2 1.2-1.5 2.5-0.8 0.9 0.5 4.5 3.4 8 6.5 3.4 3.1 6.7 5.6 7.2 5.6 0.5 0 1-1 1-2.3 0-1.2-2.7-18.6-6.1-38.7-3.3-20.1-6.4-37.4-6.9-38.5-0.7-1.8-1.8-1-10.2 7.5z"/>
		<path id="Path 1" fill-rule="evenodd" class="s1" d="m64.5 446.4c-3.3 1.7-5.9 4-7.7 6.8-1.6 2.4-3.1 6.3-3.4 8.8-0.4 2.5-0.4 6.9 0 9.8 0.3 2.8 1.2 6.4 2 8 0.7 1.5 3 4.2 5 6 2.6 2.3 5.2 3.5 9.3 4.3 3.2 0.6 7.4 0.8 9.3 0.5 1.9-0.4 5.6-2 8.2-3.6 3.4-2.1 5.4-4.4 7-7.7 1.7-3.7 2.3-6.6 2.3-12.3-0.1-6.1-0.5-8.3-2.5-12-1.6-2.8-4.2-5.5-7.4-7.5-3.8-2.3-6.4-3.1-11-3.3-5-0.3-7 0.1-11.1 2.2zm2.9 11.1c1.4-2.2 2.3-2.5 7.1-2.5 4.8 0 5.8 0.3 7.6 2.8 1.8 2.3 2 3.8 1.7 10.3-0.2 6-0.7 8.2-2.3 9.9-1.7 1.8-2.9 2.1-7.5 1.8-5-0.3-5.6-0.6-6.9-3.3-0.9-1.8-1.5-5.8-1.4-9.7 0-4.4 0.6-7.6 1.7-9.3zm590.1-10.8c-0.5 0.3-0.8 2.4-0.7 4.5 0.2 3.2-0.2 4-2.3 4.8-1.5 0.6-2.5 1.8-2.5 3 0 1.1 1.1 3 2.5 4.3 2.2 2 2.4 3 2.5 10.5 0 5.7 0.5 9.3 1.8 11.8 0.9 2 2 3.8 2.5 4 0.4 0.2 3.1 0.7 6 1 3.7 0.4 5.6 0.2 6.5-0.8 0.7-0.7 1.1-2.6 1-4.3-0.3-2.5-0.8-3.1-3.3-3.5l-3-0.5-0.5-17.5c4.9-0.4 6.8-1.3 7.4-2.2 0.8-1.3 0.8-2.3 0-3.5-0.6-1-2.5-1.9-4.3-2-3-0.3-3.1-0.5-3.1-4.8 0-3.9-0.3-4.6-2.2-5-1.3-0.3-3.5-0.5-4.9-0.5-1.4 0-2.9 0.3-3.4 0.7zm-546.5 9.3c-1.9 0.5-4.3 1.9-5.3 3.2-1.6 2-1.8 4.6-1.7 22.6v20.2h10v-12c12.6 0 15.1-0.4 16.9-1.7 1.4-1 3.3-3.6 4.3-5.8 1-2.2 1.8-6.4 1.8-9.2 0-2.9-0.6-6.8-1.4-8.5-0.7-1.8-2.8-4.7-4.5-6.3-2.9-2.7-4-3-9.9-3.2-3.7-0.1-8.3 0.2-10.2 0.7zm5.1 8.9c0.8-0.5 2.4-0.9 3.7-0.9 1.2 0 3.1 0.9 4.2 2 1.5 1.5 2 3.3 2 6.8 0 2.6-0.6 5.5-1.3 6.4-0.8 1.2-2.6 1.7-9.7 1.8l-0.2-4.7c-0.1-2.7-0.2-6.1-0.1-7.7 0-1.6 0.7-3.3 1.4-3.7zm397.6-9.3c-1.5 0.3-3.8 1.3-5 2.4-2.1 1.8-2.2 2.6-2.5 22.9l-0.2 21.1h10v-12c10.3 0 14.3-0.6 16-1.5 1.9-1 3.8-3.2 5.2-6.2 1.3-2.9 2.2-6.8 2.2-9.8 0-3-0.8-6.6-1.9-8.9-1.1-2.2-3.1-4.8-4.5-5.8-1.7-1.3-4.8-2-9.5-2.2-3.9-0.2-8.3-0.2-9.8 0zm4.3 9.1c0.8-0.3 2.4-0.6 3.5-0.6 1.1-0.1 2.9 0.5 4 1.3 1.1 0.7 2.3 2.8 2.7 4.7 0.3 1.9 0.3 4.7 0 6.3-0.4 1.6-1.4 3.2-2.2 3.6-0.8 0.4-3.2 1-9 2l-0.2-8.4c-0.2-6.6 0.1-8.5 1.2-8.9zm35.1-8.7c-1.9 0.5-4.1 1.9-5 3.1-1.3 1.7-1.6 5.6-1.9 22.5l-0.2 20.4h10l0.5-10.5c10.1-0.8 13.9-1.6 15-2.2 1.1-0.6 3.1-2.3 4.5-3.8 2.2-2.3 2.5-3.7 2.8-11.3 0.2-4.8-0.1-9.8-0.7-11.2-0.6-1.4-2.5-3.6-4.3-4.9-2.6-1.9-4.8-2.5-10.3-2.7-3.9-0.2-8.5 0.1-10.4 0.6zm6 8.9c0.7-0.4 2.5-0.6 3.9-0.2 1.4 0.3 3.2 1.2 4 2 1 0.9 1.4 3 1.3 6.6-0.1 2.9-0.8 5.8-1.5 6.5-0.7 0.7-3 1.3-8.8 1.2l-0.2-4.7c-0.1-2.7-0.2-6.1-0.1-7.7 0-1.6 0.7-3.2 1.4-3.7zm-239.1-77.2c-0.8 0.3-2.7 1.7-4.3 3.2-1.5 1.4-3.1 4.1-3.5 5.9-0.4 1.9-1.7 4-3 4.8-1.3 0.8-2.2 2.4-2.2 3.9q0 2.5 2.5 3.8c2.5 1.2 2.6 1.3 2.5 14v12.7h10l0.5-26.5c5.5-0.9 6-1.5 6-4 0-2.5-0.5-3.2-3.3-4-1.8-0.5-3.2-1.4-3.2-2-0.1-0.5 0.7-1.8 1.7-2.8 1-1 2.5-1.6 3.3-1.5 0.9 0.2 1.6-0.6 1.7-1.9 0.2-1.3-0.2-3.2-0.7-4.3-0.7-1.3-1.9-2-3.8-1.9-1.5 0-3.4 0.3-4.2 0.6zm185 2c-0.9 0.3-1.3 1.7-1.2 3.9l0.2 3.4h11v-8c-6.6 0.1-9.2 0.4-10 0.7zm-372 23.8v22.5h11c0-20.9 0.3-27.2 0.7-27.5 0.5-0.2 3 2.7 5.8 6.5 2.7 3.8 5.3 6.9 5.7 7 0.5 0 3.3-3.1 6.3-7 3-3.8 5.9-7 6.5-7 0.6 0 1 5.3 1 14v14h11v-45l-11.5 0.1c-8.9 12.3-12 15.9-12.5 15.9-0.6 0-3.5-3.6-6.5-8l-5.5-8h-12zm277.1-17.3c0 3.6-0.5 4.5-2.6 5.6-1.6 0.7-2.5 2-2.5 3.5 0.1 1.2 1.2 3.2 2.5 4.5 2.2 1.9 2.5 3.1 2.5 9 0 3.7 0.5 8.5 1 10.7 0.5 2.2 1.7 4.6 2.7 5.3 1 0.7 3.4 1.5 5.3 1.9 1.9 0.3 4.6 0.2 6-0.3 2-0.8 2.5-1.6 2.5-4.4 0-3.2-0.3-3.5-3.3-3.7l-3.2-0.3v-19c6-0.5 6.5-0.9 6.7-3.2 0.3-2.3-0.3-3-3.2-4.3-3-1.3-3.5-2-3.8-5.2l-0.2-3.8-10.4-0.6zm-212.6 5.3c-0.5 0.2-2.3 0.6-3.8 0.9-2.7 0.6-2.9 1-2.8 4.9l0.1 4.2c5.8-1.3 8.9-1.9 10.5-2.2 1.8-0.2 3.9 0.2 5.3 1.1 1.2 0.9 2.2 2.3 2.2 3.1 0 1.2-1.5 1.5-7.5 1.5-7.4 0-7.5 0-10.6 3.7-2.7 3.3-3.1 4.3-2.5 7.8 0.3 2.2 1.4 4.8 2.4 5.8 0.9 1 3.8 2.5 6.2 3.4q4.5 1.6 9.5 1.1c2.8-0.3 6.4-1.2 8-2 1.7-0.9 3.4-2.4 3.9-3.4 0.5-1.1 1-5.7 1.3-10.4 0.4-7.5 0.2-9-1.8-13-1.8-3.3-3.3-4.8-5.9-5.7-1.9-0.7-5.7-1.2-8.5-1.2-2.7 0-5.4 0.2-6 0.4zm3.1 21.7c1.1-0.7 3.1-1.2 4.4-1 1.9 0.2 2.6 0.9 2.8 3 0.2 2.6 0 2.8-3.8 2.8-2.9 0-4.2-0.5-4.6-1.8-0.4-1.1 0-2.2 1.2-3zm36.7-21.4c-1.2 0.3-3.7 0.9-5.5 1.4l-3.4 1-0.4 31.8h10c0-17.8 0.5-23.9 1-25q1-2 4-2c1.7 0 3.9 0.9 5 2 1.8 1.8 2 3.3 2 13.5v11.5h10c0-19-0.4-26.2-1-28.3-0.8-2.9-1.8-4-4.5-5.2-1.9-0.8-6-1.4-9.2-1.4-3.2 0.1-6.8 0.4-8 0.7zm32.8-0.1c-1.2 0.4-1.4 2.6-1.3 11.1 0.1 5.9 0.7 12.3 1.2 14.2 0.5 1.9 2.1 4.6 3.6 6 2.3 2.2 3.6 2.5 11.3 2.8 8.6 0.3 8.6 0.3 11.7-3 1.6-1.8 3.3-4.9 3.7-6.8 0.4-1.9 0.7-8.1 0.7-13.8v-10.2c-7.6 0-9.1 0.5-9.5 1.5-0.2 0.8-0.5 5.7-0.5 10.7 0 6.6-0.4 9.9-1.5 11.5-0.8 1.3-2.5 2.3-3.7 2.3-1.3 0-3.2-0.6-4.3-1.4-1.7-1.3-2-2.8-2.3-12.8l-0.3-11.3c-4.9-1.2-6.6-1.5-6.9-1.4-0.2 0-1.1 0.3-1.9 0.6zm73.4-0.2c-0.5 0.2-2.3 0.6-3.8 0.9-2.7 0.6-2.9 1-2.8 4.9l0.1 4.2c5.8-1.3 8.9-1.9 10.5-2.2 1.8-0.2 3.9 0.2 5.3 1.1 1.2 0.9 2.2 2.3 2.2 3.1 0 1.2-1.4 1.5-7.1 1.5-6.8 0-7.2 0.1-10.7 3.6-3.4 3.4-3.6 3.9-3 7.8 0.4 2.5 1.7 4.9 3.3 6.3 1.4 1.3 4.4 2.8 6.8 3.4 2.3 0.5 6.3 0.7 8.7 0.3 2.5-0.3 5.9-1.2 7.5-1.8 2.2-0.9 3.2-2.2 3.8-4.7 0.4-1.9 0.8-7.7 0.8-12.9 0-8.6-0.2-9.7-2.3-11.7-1.3-1.3-3.8-2.7-5.8-3.3-1.9-0.5-5.5-1-8-0.9-2.4 0-4.9 0.2-5.5 0.4zm3.1 21.7c1.1-0.7 3.1-1.2 4.4-1 1.9 0.2 2.6 0.9 2.8 3 0.2 2.6 0 2.8-3.8 2.8-2.9 0-4.2-0.5-4.6-1.8-0.4-1.1 0-2.2 1.2-3zm34.7-20.3c-1.8 1-4.2 3.2-5.4 4.7-1.1 1.6-2.4 4.7-3 6.9-0.6 2.2-0.7 5.6-0.4 7.5 0.4 1.9 1.6 5 2.6 6.7 1.1 1.8 3.7 4.2 5.9 5.3 2.6 1.3 6 2 9.5 2 3.1 0 6.7-0.5 8-1 2.1-0.9 2.5-1.6 2.3-4.8-0.2-2-0.7-3.6-1.3-3.6-0.5 0.1-3.2 0.5-6 0.9-4.5 0.6-5.3 0.4-7.7-1.9-2.2-2.1-2.8-3.5-2.8-7.1 0-3.6 0.6-5 2.8-7.1 2.5-2.4 3.2-2.5 9-2l6.2 0.6c-0.4-6.7-1-7.6-3-8.1-1.3-0.4-4.9-0.7-8-0.8-3.7-0.1-6.5 0.5-8.7 1.8zm54.7-0.9c-1.2 0.8-1.4 2.8-0.8 13.2 0.6 9.7 1.1 12.8 2.6 14.8 1 1.4 3.8 3.5 6.3 4.8 3.1 1.7 5.6 2.2 8.4 1.9 2.2-0.2 5.8-1.2 8-2.3 2.5-1.2 4.3-3 5.2-5.2 0.8-2 1.3-7.5 1.3-14.5 0.1-7.7-0.3-11.6-1.2-12.5-0.7-0.7-2.6-1.2-4.3-1.2-2.9 0-3 0.1-3.7 6.2-0.4 3.5-0.8 8.4-0.8 11 0 2.7-0.4 5.9-1 7.3-0.7 1.8-1.7 2.5-3.7 2.5-1.5 0-3.4-0.5-4.3-1-1.1-0.7-1.6-3.5-1.8-12.2-0.2-6.7-0.8-11.8-1.5-12.6-0.7-0.7-2.5-1.3-4.2-1.2-1.6 0-3.6 0.5-4.5 1zm47.5-0.1c-1.6 0.4-4 1.3-5.2 1.9-2.2 1.2-2.3 1.6-2.3 16.7v15.5h10v-27c12.9 0 13 0 13-2.8 0.1-1.5-0.5-3.3-1.2-4-0.7-0.7-3.4-1.2-6.3-1.1-2.7 0-6.3 0.4-8 0.8zm47 0.6c-2.7 0.8-5.3 1.4-5.7 1.5-0.4 0-0.7 7.1-0.5 15.7l0.2 15.8 9.5 0.5c0-17.8 0.5-23.9 1-25 0.7-1.3 2-2 3.8-2 1.5 0 3.3 0.4 3.9 0.8 0.6 0.4 1.7 1.9 2.2 3.4 0.6 1.6 1.1 7.3 1.1 12.8v10h10c-0.1-15.9-0.4-22.6-0.8-25.2-0.4-2.6-1.6-5.6-2.7-6.8-1.5-1.6-3.6-2.2-9.5-2.5-4.9-0.3-9.2 0-12.5 1zm43-0.6c-1.7 0.3-3.9 1.3-4.9 2.1-1.1 0.8-2.7 3.3-3.7 5.5-1 2.2-1.8 6-1.9 8.5 0 2.5 0.3 6 0.8 7.9 0.4 1.9 1.9 4.7 3.2 6.2 1.4 1.4 4.6 3.2 7 3.9 3.8 1 5.1 0.9 8.3-0.4l3.7-1.6c0 4.4-0.9 5.4-3.5 6.7-3.1 1.5-4.6 1.6-9.6 0.8-3.3-0.6-6.2-0.8-6.5-0.5-0.2 0.3-0.4 2.2-0.4 4.2 0 3.6 0.2 3.8 3.8 4.5 2 0.4 6.2 0.8 9.2 0.7 3.4 0 7.1-0.7 9.5-1.9 2.5-1.3 4.7-3.3 5.8-5.5 1.4-2.9 1.7-6.2 1.7-18.8 0-8.3-0.4-16.3-1-17.7-0.5-1.4-2.5-3.2-4.5-4-1.9-0.8-5.8-1.5-8.7-1.4-2.9 0.1-6.6 0.4-8.3 0.8zm5 8.2c1.1-0.5 2.4-1 2.8-1 0.4-0.1 1.6 0.8 2.7 1.9 1.5 1.5 2 3.3 2 7.5 0 3-0.4 6.4-1 7.5-0.7 1.4-2 2-4.5 2-2.5 0-3.9-0.6-5-2.3-0.8-1.2-1.5-3.9-1.5-6 0-2 0.6-4.8 1.3-6.2 0.7-1.4 2.1-2.9 3.2-3.4zm-73.5 8.9v17h10v-34h-10zm-228 28v4h10v-8h-10zm158.1-1.7c-1.9 0.7-4.3 2.4-5.2 3.7-1 1.4-2.2 3.7-2.8 5.2-0.7 1.9-0.8 4.2-0.1 7 0.6 2.4 1.5 4.7 2 5.3 0.6 0.5 4.8 2.8 9.3 5 5.7 2.8 8.3 4.6 8.5 6 0.2 1.1-0.1 2.4-0.8 3-0.6 0.5-3.9 0.9-7.3 0.8-3.5-0.2-7.2-0.9-8.4-1.8-1.8-1.2-2.4-1.2-2.8-0.3-0.3 0.7-0.4 2.9-0.3 4.8 0.3 2.7 1 3.8 3.3 4.9 1.7 0.8 6 1.4 10 1.4 4.6 0 8.2-0.6 10.3-1.6 1.8-1 4.1-2.9 5.3-4.5 1.1-1.5 2.3-4.3 2.6-6.2 0.4-2.4 0-4.5-1.3-6.9-1-1.9-3.2-4.2-4.9-5.2-1.6-1-4.8-2.3-7-2.9-2.2-0.6-5.1-2.2-6.5-3.6l-2.5-2.6c3.9-3 6.3-3.9 7.8-3.8 1.5 0 4.4 0.7 6.5 1.5 2 0.9 4.1 1.5 4.5 1.5 0.4 0 0.7-1.9 0.7-4.3 0-3.3-0.5-4.5-2.2-5.6-1.3-0.7-5.2-1.5-8.8-1.7-4-0.3-7.8 0.1-9.9 0.9zm-183.5 1.3c-0.5 0.4-0.8 2.5-0.7 4.6 0.1 3.2-0.3 4-2.4 4.8-1.9 0.8-2.5 1.7-2.5 4 0 2.3 0.6 3.2 2.5 4 2.4 0.9 2.5 1.5 2.5 8.2 0 4 0.5 8.9 1 10.8 0.5 1.9 1.9 4.4 3.1 5.5 1.3 1.2 4 2.1 6.8 2.4 3 0.2 5.1-0.1 5.9-1 0.7-0.8 1.2-2.8 1-4.4-0.2-2.4-0.8-3.1-2.8-3.3-2.1-0.2-2.6-0.9-3.2-5-0.4-2.6-0.8-6.6-0.8-9 0-4 0.2-4.2 3.3-4.5 3-0.2 3.2-0.5 3.5-4 0.2-3.5 0.1-3.7-3-4-3.1-0.2-3.3-0.5-3.8-4.7l-0.5-4.5c-7-0.5-9.4-0.3-9.9 0.1zm-98.6 9.1c-0.8 0.3-2.8 1.7-4.3 3.2-1.6 1.4-3.5 3.8-4.3 5.3-0.7 1.6-1.4 5.6-1.4 9 0 4.9 0.5 7.1 2.3 9.8 1.2 1.9 4.3 4.5 6.7 5.8 3.8 2 5.5 2.2 10.3 1.8 3.1-0.3 6.6-1.1 7.7-1.6 1.5-0.7 2-1.8 1.8-4.3l-0.3-3.2c-11.8 0.6-13.5 0.3-15.7-1.4-1.5-1.2-2.5-2.6-2.3-3.1 0.3-0.6 5.2-1 11.5-1h11c-1.9-9.7-3.3-13.7-4.2-15.3-1-1.5-3.3-3.4-5.3-4.2-1.9-0.8-5.4-1.5-7.7-1.4-2.4 0-4.9 0.3-5.8 0.6zm2.6 9.5c1.5-1.2 3-2.2 3.3-2.2 0.4 0 1.4 0.5 2.4 1.2 1.1 0.8 1.6 2 1.3 3-0.4 1.2-1.6 1.8-3.8 1.8-1.8 0-3.9-0.4-4.6-0.8-1-0.5-0.7-1.3 1.4-3zm32.4-8.6l-4.6 1.4c-1.1 19-1.4 26.2-1.4 28.2v3.8h10v-26l12.5-0.5c0.5-5.6 0.1-7.3-0.7-7.7-0.7-0.4-3.5-0.7-6.3-0.7-2.7 0-7 0.7-9.5 1.5zm30.5-0.9c-1.1 0.2-3 0.6-4.2 0.9-2 0.4-2.3 1.1-2.3 4.7v4.2c6.6-1.4 10.1-1.8 12-1.8 2.3 0 4 0.7 4.8 1.9 0.7 1.1 1.3 2.5 1.2 3.1 0 1-1.6 1.1-6.7 0.6-6.5-0.6-6.9-0.5-10.3 2.5-3 2.6-3.5 3.6-3.5 7.7 0 3.9 0.5 5.1 3 7.4 1.8 1.7 4.8 3.1 7.5 3.5 2.5 0.4 6.6 0.5 9 0.2 2.5-0.4 6-1.6 7.8-2.6l3.2-2c0-18.2-0.5-23.5-1.3-25-0.6-1.4-2.8-3.3-4.7-4.3-2.1-1-5.5-1.7-8.5-1.6-2.7 0.1-5.9 0.3-7 0.6zm2.6 21.8c0.6-0.8 2-1.5 3-1.5 1.1 0 2.6 0.2 3.4 0.5 0.9 0.3 1.5 1.6 1.5 3 0 2.2-0.4 2.5-4 2.5q-4 0-4.5-1.5c-0.2-0.8 0-2.2 0.6-3zm80.9-20.3c-1.8 1.3-4.2 3.6-5.4 5.1-1.7 2.3-2.1 4.2-2 10 0 4.7 0.6 8.3 1.7 10.4 1 1.8 3.2 4.2 5 5.3 2.4 1.5 5 2 10.2 2 5.3 0 7.8-0.5 10.3-2 1.8-1.1 4-3.5 4.9-5.3 1-2 1.6-5.8 1.6-10.2 0-5.3-0.4-7.9-2-10.5-1.3-2.2-3.6-4.1-6.2-5.3-2.2-0.9-6.5-1.7-9.4-1.7-3.9 0-6.2 0.6-8.7 2.2zm7.2 7.1c1.1-0.6 2.9-0.8 4.1-0.4 1.2 0.5 2.8 1.9 3.5 3.2 0.6 1.3 1.2 3.6 1.2 5.1 0 1.6-0.4 3.9-1 5.3-0.5 1.4-2.1 2.9-3.5 3.5q-2.5 1-5 0c-1.7-0.7-2.7-2-3.1-4.3-0.3-1.7-0.1-5 0.6-7.2 0.6-2.2 2-4.5 3.2-5.2zm37.3-8.7c-1.1 0.3-3.9 1-6.2 1.7l-4.2 1.2c-0.9 9.3-0.8 16.3-0.4 21.5l0.8 9.5 9.5 0.5c0-23.7 0.3-26.1 1.5-26.5 0.9-0.3 3.3-0.1 5.5 0.5l4 1v25h11.5c-0.9-25.9-1.2-28.1-3-30-1.1-1.3-3.4-2.9-5.2-3.6-1.8-0.8-5.2-1.4-7.5-1.3-2.4 0.1-5.2 0.3-6.3 0.5zm36.6 0.6c-1.9 0.7-4.2 2.4-5.2 3.8-1 1.4-2.1 3.8-2.4 5.5-0.5 2.2 0 3.9 1.7 6.4 1.6 2.4 3.8 3.9 7 5 2.6 0.9 5.3 2.2 6 2.9 1.1 1 1.1 1.5-0.2 2.3-0.8 0.5-3 0.7-5 0.4-1.9-0.3-4.9-0.7-6.7-1-3.1-0.5-3.3-0.3-3.3 2.5 0 1.6 0.6 3.6 1.3 4.3 0.7 0.7 3.5 1.6 6.2 2.1 2.8 0.4 6.4 0.4 8 0 1.7-0.3 4.3-1.3 5.8-2 1.5-0.8 3.4-2.9 4.2-4.7 0.8-1.7 1.1-4.3 0.8-5.7-0.3-1.4-1.1-3.1-1.7-3.9-0.6-0.8-3.5-2.6-6.6-4-3.9-1.9-5.5-3.2-5.5-4.6 0-1.8 0.6-2 6.3-1.8 5.9 0.3 6.2 0.2 6.3-2 0-1.2-0.8-3-1.8-3.9-1-1-4-2-6.8-2.3-2.8-0.3-6.4 0-8.4 0.7zm211.4 0c-1.1 0.6-3.2 2.2-4.8 3.7-1.5 1.4-3.2 4.4-3.8 6.6-0.6 2.2-0.8 6.2-0.5 9 0.4 2.7 1.6 6.6 2.9 8.5 1.3 1.9 3.4 4 4.8 4.7 1.3 0.7 4.5 1.5 6.9 1.9 3.7 0.6 5.5 0.3 10.3-1.9 4.1-1.9 6.2-3.6 7.3-6 1.3-2.4 1.6-5.3 1.3-11.4-0.3-7-0.7-8.5-2.9-10.9-1.3-1.4-3.9-3.3-5.7-4-1.8-0.8-5.6-1.4-8.5-1.4-2.9 0-6.2 0.6-7.3 1.2zm3.8 9.5c1.5-1.5 2.9-2.7 3.2-2.7 0.3 0 1.7 0.6 3 1.2 1.4 0.7 3.1 2.6 3.7 4.3 0.6 1.6 0.8 4.6 0.5 6.5-0.4 1.9-1.3 4.1-2.1 4.9-0.8 0.8-2.8 1.5-4.5 1.5-1.6 0.1-3.6-0.5-4.3-1.2-0.7-0.7-1.5-3.7-1.7-6.5-0.4-4.6-0.1-5.5 2.2-8zm33.8-8.7l-4.5 1.8c-1 9.8-1.4 16.9-1.5 21.9l-0.1 9.3 10.5-0.5 0.5-25.5c9.7-0.4 11.6-1 12.4-2.2 0.8-1.2 0.8-2.3-0.1-4.2-1.2-2.4-1.8-2.6-7-2.5-3.2 0-7.8 0.8-10.2 1.9zm-355.1 16v17h10v-34h-10zm189.2-4.1c0.3 11.2 0.6 13.3 2.4 15.8 1.2 1.5 3.4 3.5 5 4.3 1.8 0.9 5.4 1.4 9.4 1.3 4-0.1 7.4-0.8 8.8-1.8 1.2-0.8 3-2.7 3.9-4.3 1.3-2 1.9-5.8 2.3-15.5l0.5-12.7h-10.5c0 16.3-0.4 22.1-1 23.5-0.7 1.9-1.7 2.5-4.2 2.5-1.8 0.1-3.8-0.5-4.5-1.2-0.9-0.8-1.4-5.4-1.7-13.1l-0.4-11.7h-10.4z"/>
		<path id="Path 5" class="s2" d="m442 206.1c-4.1 1.7-13.4 5.5-20.5 8.6-7.1 3-13.9 6-15 6.6-1.8 0.9-1.4 1.3 3.9 3.6l5.9 2.6c-9.2 10.9-16.1 17.8-21.2 22.5-5.1 4.7-14.3 12.3-20.4 16.8-6.2 4.6-15.3 10.9-20.2 14-4.9 3-13.7 7.7-19.5 10.3-5.8 2.5-12.9 5.2-15.8 5.8-2.8 0.6-7.3 1.1-10 1.1-2.6 0-6.7-0.7-9.2-1.5-2.5-0.9-5.8-2.8-7.3-4.3-1.6-1.5-4-4.9-5.4-7.7q-2.5-5-3.1-12c-0.3-3.9 0.1-10.1 0.8-14 0.7-3.8 2.3-9.7 3.6-13 1.2-3.3 3.4-8.7 4.9-12q2.6-6 1.6-7-1-1-2.7 0.5c-1 0.8-3.7 5.7-6.1 10.8-2.4 5-5.2 12.5-6.3 16.5-1.1 3.9-2.3 9.9-2.6 13.2-0.4 3.5-0.1 8.5 0.6 12 0.7 3.3 2.3 8.1 3.6 10.8 1.3 2.6 3.9 6.2 5.8 8 1.8 1.7 5.8 4.5 8.7 6.1 5.3 2.9 5.6 2.9 17.9 2.4 11.2-0.4 13.6-0.8 23.5-4.2 6.1-2.1 15.5-6.1 21-8.8 5.5-2.8 13.4-7.1 17.5-9.6 4.1-2.5 12-7.7 17.5-11.6 5.5-3.8 12.2-8.8 15-11 2.7-2.2 8.9-7.5 13.7-11.8 4.9-4.3 9.2-7.8 9.8-7.8 0.6 0 2.3 2.1 4 4.8l2.9 4.7c2.6-6.2 5.5-16.9 8.2-27.7 2.7-10.9 4.9-20 4.9-20.3 0-0.3-0.6-0.5-1.3-0.4-0.6 0-4.6 1.4-8.7 3z"/>
		<path id="Path 6" class="s3" d="m416 105.1c-4.1 1.1-10.9 3.2-15 4.6-4.1 1.4-10.6 4-14.5 5.8-3.9 1.7-11.9 6-18 9.5-6.1 3.4-14.8 8.9-19.5 12-4.7 3.1-11.9 8.4-16 11.8-4.1 3.3-10.9 8.9-15 12.6-4.1 3.6-7.8 6.3-8.3 6.1-0.4-0.3-1.8-2.3-3.2-4.5-1.4-2.2-3-3.9-3.6-3.7-0.7 0.1-1.8 2-2.6 4.2-0.8 2.2-3.4 12.6-5.9 23-2.5 10.4-4.3 19.6-4 20.3 0.3 0.6 1.6 1 2.9 0.8 1.2-0.2 8.5-3.1 16.2-6.3 7.7-3.3 17-7.4 20.8-9.1 3.7-1.8 6.7-3.6 6.7-4.2 0-0.6-2.3-2-5-3.2-2.8-1.3-5-2.7-5-3.3 0-0.6 4.6-5.5 10.3-11 5.6-5.5 14.5-13.5 19.7-17.7 5.2-4.2 14.7-11.1 21-15.3 6.3-4.2 16.4-10.1 22.5-13 6.1-3 13.8-6.3 17.3-7.4 4.5-1.5 8.8-2.1 15.7-2.1 6.2 0 10.5 0.5 12.3 1.4 1.5 0.8 3.7 2.5 4.8 3.8 1.2 1.2 3.6 5.2 5.4 8.8 2.9 5.9 3.1 7.1 2.5 12.5-0.3 3.3-1.5 9.5-2.6 13.8-1 4.2-3.9 12.3-6.4 18-3.3 7.2-4.3 10.5-3.5 11.2q1.1 1 2.8-0.1c0.9-0.6 3-3.1 4.6-5.5 1.7-2.4 4.8-9.1 7-14.9 3.8-10.1 4-11.1 4.4-24 0.3-13.2 0.2-13.6-2.5-18.9-1.5-2.9-4.8-7.2-7.3-9.5-2.5-2.4-7-5.2-10.3-6.4-4.1-1.6-7.8-2.2-13.4-2.1-4.5 0-11 0.9-15.3 2z"/>
		<path id="Path 7" fill-rule="evenodd" class="s4" d="m469.4 130c0.6 0 3.8 0.5 7.1 1.1 3.3 0.6 8.7 2.5 12 4.2 3.3 1.6 8 4.9 10.5 7.2 2.5 2.3 5.6 6.6 6.9 9.6 1.9 4.1 2.6 7.6 2.9 14.9 0.3 7.5-0.1 11.5-1.8 19-1.3 5.2-3.6 12.7-5.2 16.5-1.6 3.8-5.6 12.2-8.9 18.5-3.4 6.3-8.9 15.8-12.3 21-3.5 5.2-9.8 14-14.1 19.5-4.3 5.5-12.5 15.3-18.2 21.8-5.9 6.7-10.2 12.4-10 13.4 0.1 1 2.5 2.9 5.2 4.4 2.8 1.5 5.1 3.2 5.3 3.8 0.1 0.6-2.2 1.7-5 2.5-2.9 0.8-14.7 3.8-26.3 6.6-11.5 2.8-22 5.3-23.2 5.5-1.3 0.3-2.7 0.3-3.3 0-0.6-0.3-0.4-2.1 0.7-4.8 0.9-2.3 5.9-14.3 11-26.7 5.2-12.4 9.9-22.8 10.6-23.2 0.7-0.4 1.4-0.5 1.7-0.4 0.3 0.2 1.1 2.5 1.8 5.2 0.8 2.7 1.9 5.5 2.5 6.2 0.7 0.7 1.5 1.3 2 1.2 0.4 0 4.6-3.5 9.4-7.8 4.8-4.2 13.6-13.1 19.7-19.7 6-6.6 14.6-16.9 19.1-23 4.5-6.1 10.7-15.3 13.9-20.5 3.1-5.2 7-12.7 8.6-16.5 1.6-3.8 3.6-9.7 4.4-13 0.9-3.3 1.6-7.8 1.6-10 0-2.2-0.6-6-1.5-8.5-0.8-2.5-3.2-6.5-5.2-8.9-2.1-2.4-5.8-5.4-8.3-6.6-2.5-1.2-5.4-2.5-6.5-2.8-1.1-0.3-3.9-1.1-6.2-1.6-3.4-0.9-4.3-1.6-4.5-3.4-0.1-1.3 0.4-2.8 1.2-3.5 0.8-0.7 1.9-1.2 2.5-1.2zm-12.6 2.2c0.9 0.6 1.5 1.9 1.3 2.9-0.1 1.1-0.5 2.1-0.9 2.3-0.5 0.3-4.8 1.7-9.8 3.1-4.9 1.4-13.2 4.5-18.3 6.8-7.9 3.5-9.5 4-10.2 2.7-0.5-0.8-0.5-2.1-0.2-2.9 0.4-0.7 5-3.4 10.2-5.9 5.2-2.6 13.3-5.8 17.9-7.3 6.2-2 8.9-2.5 10-1.7z"/>
		<path id="Path 8" class="s5" d="m465.3 139c0 3.6 0.2 4.9 0.4 3 0.3-1.9 1-3.8 1.6-4.2 0.9-0.6 0.9-0.8-0.1-0.8-0.6 0-1.4-1-1.6-2.3-0.2-1.2-0.3 0.7-0.3 4.3zm-85.3 17.5c-9.1 2.5-20.6 5.4-25.5 6.5-5 1.2-9.5 1.9-10 1.6-0.6-0.2-1.6 0.1-2.3 0.7-0.7 0.7-1.2 1.5-1.2 2 0 0.4 3.1 2.3 7 4.2 3.9 1.9 7.2 3.8 7.4 4.3 0.3 0.4-1 2.5-2.7 4.8-1.8 2.2-6.6 7.8-10.8 12.5-4.2 4.6-11.4 13.8-16.1 20.4-4.7 6.6-11.6 16.9-15.3 23-3.7 6.1-8.3 14.2-10.2 18-2 3.9-5.7 12.2-8.3 18.5-4.7 11.4-4.7 11.5-3.1 14.5 1 1.6 3.3 4.3 5.2 5.8 1.9 1.6 3.8 2.7 4.2 2.5 0.4-0.2 1.4-1.4 2.2-2.8 0.7-1.4 4-8.1 7.3-15 3.3-6.9 8.7-16.6 12-21.5 3.4-4.9 10.7-14.8 16.5-22 5.7-7.2 15.9-18.5 22.5-25.3 6.7-6.7 12.9-12.2 13.7-12.2 0.8 0 1.5 0.1 1.5 0.3 0 0.1 0.9 2.7 1.9 5.7 1 3 2.5 5.9 3.4 6.5 0.9 0.6 1.8 0.8 2 0.5 0.3-0.3 4.4-9.7 9.2-21 4.8-11.3 9.8-23.4 11.1-27 1.4-3.6 2.4-7.3 2.4-8.2 0-1.4-0.8-1.8-3.8-1.7-2 0-11.1 2-20.2 4.4zm129.3 13c0 4.4 0.2 6 0.4 3.5 0.2-2.5 0.2-6.1 0-8-0.2-1.9-0.4 0.1-0.4 4.5zm-21.6 27c-2 4.1-3.5 7.5-3.2 7.5 0.3 0 2.1-3.2 4-7 1.9-3.8 3.4-7.2 3.2-7.5-0.2-0.2-2 2.9-4 7zm7.5 20c-1.8 3.6-3 6.5-2.7 6.5 0.3 0 1.9-2.7 3.5-6 1.6-3.3 2.9-6.2 2.7-6.5-0.2-0.2-1.7 2.5-3.5 6zm-31.4 16.2c-2.9 3.8-4.7 6.5-4.1 6 0.7-0.4 3.3-3.4 5.8-6.7 2.5-3.3 4.3-6 4.1-6-0.2 0-2.8 3-5.8 6.7zm-24.3 27.6l-9 9.2c14.3-13.9 18.5-18.1 18.5-18.3 0-0.1-0.1-0.2-0.3-0.2-0.1 0-4.3 4.2-9.2 9.3zm-154.1 41.5c-0.4 1.5-0.4 5.4-0.1 8.7 0.3 3.3 1.3 7.8 2.2 10 0.9 2.2 4.2 6.6 7.3 9.8 3.2 3.2 7.9 6.8 10.7 8.1 2.7 1.3 7.4 2.8 10.2 3.5 2.9 0.6 8.3 1.1 12 1.1 3.8 0 10.4-0.9 14.8-2.1 4.4-1.1 11.6-3.5 16-5.2 4.4-1.8 10-4.5 12.5-6.2 3.3-2.2 4.5-3.6 4.5-5.5 0-1.9-0.4-2.4-2-2.2-1.1 0.2-6.5 2.1-12 4.2-5.5 2.2-13.6 4.7-18 5.6-5.4 1.1-10.9 1.5-17 1.2-7.2-0.3-10-1-14.3-3.1-2.8-1.5-6.8-4.3-8.7-6.2-2.7-2.7-3.7-4.8-4.6-9.2-0.6-3.2-1.2-6.5-1.4-7.3-0.2-0.8-2.6-2.9-5.2-4.7-2.6-1.8-5.1-3.2-5.5-3.3-0.4 0-1.1 1.2-1.4 2.8zm-104 111.7c0 12.6 0.2 17.6 0.3 11 0.2-6.6 0.2-16.9 0-23-0.1-6.1-0.3-0.6-0.3 12zm334 5.5c0 9.6 0.2 13.4 0.3 8.5 0.2-4.9 0.2-12.8 0-17.5-0.1-4.7-0.3-0.6-0.3 9zm-40.2-1.3c0.1 7.6 0.3 11.8 0.5 9.3 0.1-2.5 0.4-8.7 0.5-13.8 0.2-5 0-9.2-0.5-9.2-0.4 0-0.6 6.2-0.5 13.7zm48 2c-0.1 9 0.1 16.3 0.5 16.3 0.5 0 0.7-4.8 0.5-10.7-0.1-6-0.4-13.3-0.5-16.3-0.2-3-0.4 1.8-0.5 10.7zm-357.3-9c-1.9 2.3-2 2.4-0.2 0.8l2.2-2c1 17.1 1.4 22.4 1.6 23 0.2 0.6 0.4-4.7 0.4-11.8 0.1-7-0.3-12.7-0.7-12.7-0.5 0-2 1.2-3.3 2.7zm-21.5 11.8c0 7.7 0.2 10.6 0.3 6.5 0.2-4.1 0.2-10.4 0-14-0.2-3.6-0.3-0.2-0.3 7.5zm178.1-12.2c-0.3 0.7-0.4 5.8-0.2 11.3l0.3 9.9c0.4-20.1 0.6-21.6 2.1-21.9 1.7-0.3 1.7-0.4 0-0.5-1 0-2 0.5-2.2 1.2zm98.9 8.2c0 5.5 0.1 7.5 0.3 4.5 0.2-3 0.2-7.5 0-10-0.2-2.5-0.3 0-0.3 5.5zm65 4c0 7.7 0.2 10.6 0.3 6.5 0.2-4.1 0.2-10.4 0-14-0.2-3.6-0.3-0.2-0.3 7.5zm18-3.5c0 5.8 0.1 8 0.3 5 0.2-3 0.2-7.8 0-10.5-0.2-2.8-0.3-0.3-0.3 5.5zm-266 2c0 5.2 0.1 7.2 0.3 4.5 0.2-2.8 0.2-7 0-9.5-0.2-2.5-0.3-0.2-0.3 5zm295.9-2c0 4.1 0.2 5.9 0.4 4 0.2-1.9 0.2-5.3 0-7.5-0.2-2.2-0.4-0.6-0.4 3.5zm-223 3c0 4.7 0.2 6.5 0.4 4 0.2-2.5 0.2-6.3 0-8.5-0.2-2.2-0.4-0.2-0.4 4.5zm234.1 1.5c0 4.9 0.1 7.2 0.3 5 0.2-2.2 0.2-6.3 0-9-0.2-2.8-0.3-0.9-0.3 4zm-258 49.5c0 9.6 0.2 13.4 0.3 8.5 0.2-4.9 0.2-12.8 0-17.5-0.1-4.7-0.3-0.6-0.3 9zm189-8.5c0 4.9 0.1 7.2 0.3 5 0.2-2.2 0.2-6.3 0-9-0.2-2.8-0.3-0.9-0.3 4zm-294.6-1.5c-0.4 3-0.7 8.9-0.7 13l0.2 7.5c1.4-10.9 1.6-16.7 1.5-20l-0.3-6zm283.6 4.5c0 3.9 0.2 5.2 0.4 3 0.2-2.2 0.2-5.4 0-7-0.3-1.6-0.4 0.1-0.4 4zm22 2c0 4.9 0.2 7.2 0.4 5 0.2-2.2 0.2-6.3 0-9-0.2-2.8-0.4-0.9-0.4 4zm-211 3c0 5.5 0.2 7.5 0.4 4.5 0.2-3 0.2-7.5 0-10-0.2-2.5-0.4 0-0.4 5.5zm-84 4.5c0 7.4 0.2 10.4 0.4 6.5 0.2-3.9 0.2-9.9 0-13.5-0.2-3.6-0.4-0.4-0.4 7zm154 0c0 7.4 0.2 10.4 0.4 6.5 0.2-3.9 0.2-9.9 0-13.5-0.2-3.6-0.4-0.4-0.4 7zm-106-2.5c0 3.9 0.2 5.2 0.4 3 0.2-2.2 0.2-5.4 0-7-0.3-1.6-0.4 0.1-0.4 4zm-126 2l0.1 5 8 0.2c-7.4-0.7-7.5-0.8-7.8-5.5l-0.4-4.7zm441.6-0.8c0 2.1 0.5 4.4 1.2 5.1 0.8 0.7 2.9 1.1 4.8 0.9l3.5-0.4-7.5-0.3c0-7-0.4-9-1-9-0.5 0-1 1.7-1 3.7zm-220.8 7.5c-0.1 3.8 0.2 6.8 0.6 6.8 0.4 0 0.6-2.1 0.4-4.8-0.1-2.6-0.4-5.6-0.6-6.7-0.1-1.1-0.3 1-0.4 4.7z"/>
	</g>
</svg>